<?xml version="1.0" standalone="no"?>
<!DOCTYPE svg PUBLIC "-//W3C//DTD SVG 20010904//EN"
 "http://www.w3.org/TR/2001/REC-SVG-20010904/DTD/svg10.dtd">
<svg version="1.0" xmlns="http://www.w3.org/2000/svg"
 width="512.000000pt" height="512.000000pt" viewBox="0 0 512.000000 512.000000"
 preserveAspectRatio="xMidYMid meet">
<metadata>
Created by potrace 1.14, written by Peter Selinger 2001-2017
</metadata>
<g transform="translate(0.000000,512.000000) scale(0.100000,-0.100000)"
fill="#000000" stroke="none">
<path d="M3462 4674 c-41 -29 -47 -52 -49 -219 -1 -88 -2 -169 -2 -180 -1 -15
-9 -21 -28 -23 -171 -14 -382 -95 -539 -208 l-72 -52 -108 110 c-152 153 -175
167 -237 146 -53 -19 -86 -103 -57 -148 5 -8 64 -70 130 -137 l122 -121 -57
-82 c-65 -96 -114 -196 -145 -295 -12 -38 -23 -76 -26 -83 -4 -13 -27 -13 -89
1 -11 2 -42 8 -68 11 -27 4 -59 10 -70 12 -27 6 -265 6 -292 0 -11 -2 -42 -7
-70 -10 -125 -17 -327 -79 -427 -132 -18 -10 -35 -18 -38 -19 -24 -3 -183
-110 -265 -179 -281 -233 -475 -581 -521 -931 -3 -27 -8 -54 -11 -58 -3 -5
-29 -19 -59 -33 -113 -51 -226 -145 -311 -255 -298 -389 -199 -945 217 -1225
90 -60 233 -113 355 -130 66 -9 2845 -11 2955 -2 123 10 139 13 237 43 87 27
245 100 251 116 2 5 8 9 14 9 11 0 117 80 156 119 242 239 355 534 330 859
-19 237 -117 458 -286 642 l-51 54 39 42 c147 160 263 402 286 599 9 76 -4 71
183 71 191 1 221 8 245 59 23 47 16 84 -21 121 l-32 32 -178 2 c-168 1 -187 3
-189 18 -14 193 -118 450 -241 596 l-24 28 122 123 c67 67 126 129 131 139 14
25 4 93 -17 116 -24 26 -72 39 -109 29 -17 -5 -78 -57 -148 -126 -65 -65 -122
-119 -127 -121 -5 -2 -21 8 -37 20 -142 115 -368 209 -556 233 -23 3 -44 7
-46 10 -3 3 -5 73 -4 157 0 174 -8 218 -45 247 -31 25 -89 27 -121 5z"/>
</g>
</svg>
